<svg width="24" height="33" viewBox="0 0 24 33" fill="none" xmlns="http://www.w3.org/2000/svg">
<path d="M19.1411 0H4.83143C2.28095 0 0.201843 1.59199 0.201843 3.54492V29.4551C0.201843 31.408 2.28095 33 4.83143 33H19.1411C21.6915 33 23.7706 31.408 23.7706 29.4551V3.54492C23.7706 1.59199 21.7 0 19.1411 0ZM10.2438 1.45664H13.796C14.2084 1.45664 14.5367 1.74668 14.5367 2.10117C14.5367 2.45566 14.2084 2.7457 13.796 2.7457H10.2438C9.83138 2.7457 9.5031 2.45566 9.5031 2.10117C9.5031 1.74668 9.83138 1.45664 10.2438 1.45664ZM6.88528 1.35996C7.41558 1.35996 7.85329 1.68867 7.85329 2.10117C7.85329 2.51367 7.41558 2.83594 6.88528 2.83594C6.35499 2.83594 5.91728 2.50723 5.91728 2.09473C5.91728 1.68223 6.34657 1.35996 6.88528 1.35996ZM12.0199 30.7506C11.1613 30.7506 10.4711 30.2221 10.4711 29.5646C10.4711 28.9072 11.1613 28.3787 12.0199 28.3787C12.8785 28.3787 13.5687 28.9072 13.5687 29.5646C13.5687 30.2221 12.8785 30.7506 12.0199 30.7506ZM21.0771 27.6826H2.90384V4.29258H21.0771V27.6826Z" fill="#3F51B5"/>
</svg>
